<?xml version="1.0" encoding="UTF-8"?>
<svg version="1.1" xmlns="http://www.w3.org/2000/svg" width="512" height="512">
<path d="M0 0 C1.44871929 1.25802863 2.88595684 2.52937949 4.3125 3.8125 C5.78009766 4.98619141 5.78009766 4.98619141 7.27734375 6.18359375 C21.36781612 17.90823645 30.90035717 37.9415241 33.3125 55.8125 C33.44355582 59.07108604 33.42911441 62.32517131 33.41015625 65.5859375 C33.40803383 66.9715538 33.40803383 66.9715538 33.40586853 68.38516235 C33.40029609 71.31930862 33.38774869 74.25337701 33.375 77.1875 C33.36998144 79.18359264 33.36541915 81.17968649 33.36132812 83.17578125 C33.35033569 88.05471725 33.3330901 92.93359545 33.3125 97.8125 C33.87235596 97.79678955 34.43221191 97.7810791 35.0090332 97.76489258 C37.5475859 97.70250152 40.08597729 97.66349782 42.625 97.625 C43.50607422 97.59986328 44.38714844 97.57472656 45.29492188 97.54882812 C46.14248047 97.53916016 46.99003906 97.52949219 47.86328125 97.51953125 C48.64356689 97.5038208 49.42385254 97.48811035 50.2277832 97.47192383 C52.3125 97.8125 52.3125 97.8125 54.06929016 99.07429504 C55.59244498 101.20390758 55.67708122 102.31620123 55.65307617 104.91674805 C55.65284958 105.73737228 55.65262299 106.55799652 55.65238953 107.40348816 C55.63690567 108.28482925 55.62142181 109.16617035 55.60546875 110.07421875 C55.60122391 110.98001175 55.59697906 111.88580475 55.59260559 112.81904602 C55.57580848 115.71299933 55.5381545 118.60625706 55.5 121.5 C55.48495449 123.46157849 55.47126585 125.42316789 55.45898438 127.38476562 C55.42845288 132.19449419 55.36973407 137.00271825 55.3125 141.8125 C66.8625 141.8125 78.4125 141.8125 90.3125 141.8125 C90.6425 140.1625 90.9725 138.5125 91.3125 136.8125 C95.27846022 129.56673185 101.27658719 124.87708844 109.125 122.4375 C117.42594396 120.74143286 125.23164842 122.30797657 132.3125 126.8125 C133.199375 127.369375 134.08625 127.92625 135 128.5 C140.78500865 134.28500865 143.45716247 141.30432733 143.6875 149.375 C143.60488005 157.3891356 141.81466161 162.86976795 136.48046875 168.875 C130.40945951 174.62270106 124.75022136 176.90983749 116.4375 177.25 C108.53415065 177.01080658 102.17425889 174.90918569 96.375 169.4375 C92.94543439 165.66821326 90.3125 162.05153381 90.3125 156.8125 C78.7625 156.8125 67.2125 156.8125 55.3125 156.8125 C55.3125 170.0125 55.3125 183.2125 55.3125 196.8125 C84.0225 196.8125 112.7325 196.8125 142.3125 196.8125 C142.6425 195.1625 142.9725 193.5125 143.3125 191.8125 C147.05703055 185.04354093 152.57566022 179.68965618 160.01953125 177.28515625 C168.60290218 175.51584129 176.71642728 176.36280749 184.3125 180.8125 C189.85018149 184.91527362 193.66794664 190.08917892 195.3125 196.8125 C196.39230468 206.09270812 196.00981214 214.14911289 190.3125 221.8125 C184.29764349 228.52742295 177.055266 231.29764041 168.1484375 231.87109375 C159.91474025 231.70097604 153.2259276 228.43913319 147.3125 222.8125 C144.16071228 218.85256159 143.3262188 216.88109398 142.3125 211.8125 C113.6025 211.8125 84.8925 211.8125 55.3125 211.8125 C54.9825 215.7725 54.6525 219.7325 54.3125 223.8125 C53.515625 227.84375 53.515625 227.84375 52.5625 231.3125 C52.25828125 232.4571875 51.9540625 233.601875 51.640625 234.78125 C49.84293908 240.2377555 47.5221188 245.50941489 45.3125 250.8125 C60.1625 250.8125 75.0125 250.8125 90.3125 250.8125 C90.6425 249.1625 90.9725 247.5125 91.3125 245.8125 C95.27846022 238.56673185 101.27658719 233.87708844 109.125 231.4375 C117.42594396 229.74143286 125.23164842 231.30797657 132.3125 235.8125 C133.199375 236.369375 134.08625 236.92625 135 237.5 C140.78500865 243.28500865 143.45716247 250.30432733 143.6875 258.375 C143.60488005 266.3891356 141.81466161 271.86976795 136.48046875 277.875 C130.40945951 283.62270106 124.75022136 285.90983749 116.4375 286.25 C108.53415065 286.01080658 102.17425889 283.90918569 96.375 278.4375 C92.94543439 274.66821326 90.3125 271.05153381 90.3125 265.8125 C72.1625 265.8125 54.0125 265.8125 35.3125 265.8125 C34.6525 267.1325 33.9925 268.4525 33.3125 269.8125 C20.8489761 284.96672356 20.8489761 284.96672356 14.2482605 288.4118042 C10.96923243 290.58166328 10.96923243 290.58166328 10.55300903 294.40655518 C10.51798054 295.86860588 10.51579898 297.33166794 10.53955078 298.79394531 C10.52892105 299.5943222 10.51829132 300.3946991 10.50733948 301.21932983 C10.47927192 303.86039995 10.49335076 306.49947379 10.5078125 309.140625 C10.49656346 310.9733861 10.4826833 312.80613278 10.46627808 314.63885498 C10.43020038 319.45916092 10.42987152 324.27883314 10.43695068 329.09924316 C10.43786276 334.01940286 10.40501692 338.93932398 10.375 343.859375 C10.32110057 353.51048302 10.30496041 363.16125812 10.3125 372.8125 C11.48619141 373.02398682 11.48619141 373.02398682 12.68359375 373.23974609 C18.95769005 374.60666938 23.94059448 379.78507499 27.34765625 385.0390625 C30.92276899 391.61032235 31.51068721 399.25121914 29.625 406.4296875 C26.43303686 415.18098644 21.68901016 420.77936548 13.3125 424.8125 C6.18256413 427.10754374 -3.07533435 426.95534796 -9.91796875 423.84375 C-17.05796935 419.68269005 -21.82716503 413.78205589 -24.3046875 405.83203125 C-25.67126492 398.62263812 -25.032917 391.37330012 -21.6875 384.8125 C-17.90957502 379.31644893 -13.73136242 375.60197496 -7.6875 372.8125 C-6.6975 372.8125 -5.7075 372.8125 -4.6875 372.8125 C-4.6875 349.0525 -4.6875 325.2925 -4.6875 300.8125 C-10.9575 303.1225 -17.2275 305.4325 -23.6875 307.8125 C-38.39717742 310.8125 -38.39717742 310.8125 -43.6875 310.8125 C-43.6875 348.4325 -43.6875 386.0525 -43.6875 424.8125 C-41.7075 425.4725 -39.7275 426.1325 -37.6875 426.8125 C-31.27004138 430.89739229 -26.83978071 436.51259862 -24.6875 443.8125 C-23.62252757 452.10609061 -24.02635857 459.69892795 -28.6875 466.8125 C-32.74665793 471.63960673 -38.27816332 476.72540403 -44.6875 477.8125 C-52.26115297 478.29219544 -59.02071724 478.70145661 -65.6875 474.8125 C-66.71875 474.235 -67.75 473.6575 -68.8125 473.0625 C-74.11330923 468.9140406 -76.89005893 464.28962245 -78.6875 457.8125 C-79.69750088 448.83943952 -79.15576751 441.20454355 -73.6875 433.8125 C-69.27127064 428.942859 -66.05439343 426.93479781 -59.6875 424.8125 C-59.6875 387.1925 -59.6875 349.5725 -59.6875 310.8125 C-64.9675 310.1525 -70.2475 309.4925 -75.6875 308.8125 C-79.59818044 307.72564209 -83.27489342 306.62912101 -87.0625 305.25 C-87.97515625 304.93353516 -88.8878125 304.61707031 -89.828125 304.29101562 C-96.1442811 302.08410945 -96.1442811 302.08410945 -98.6875 300.8125 C-98.6875 324.5725 -98.6875 348.3325 -98.6875 372.8125 C-97.0375 373.1425 -95.3875 373.4725 -93.6875 373.8125 C-86.88418799 377.65224807 -82.23540123 382.90589214 -79.375 390.125 C-77.58932921 399.7026888 -78.57373378 407.61221259 -84.04296875 415.85546875 C-88.12882878 420.99291742 -93.13593191 424.56793689 -99.6875 425.8125 C-109.18042362 426.46545242 -116.71669153 426.09112109 -124.375 420.1875 C-129.69091878 415.32167045 -133.24427969 408.74758764 -133.890625 401.55078125 C-134.07206136 392.16144952 -132.1082681 385.45774326 -125.59375 378.54296875 C-122.05754637 375.33284947 -118.61044177 372.8125 -113.6875 372.8125 C-113.60958481 362.24165473 -113.58022469 351.67188516 -113.61234188 341.10076809 C-113.62574193 336.19165839 -113.62260488 331.28373426 -113.58129883 326.37475586 C-113.54202636 321.63440832 -113.54668515 316.89592791 -113.58142281 312.15556526 C-113.58700893 310.34991519 -113.57693556 308.54414466 -113.55073357 306.73867607 C-113.07872947 296.93596189 -113.07872947 296.93596189 -116.65388489 288.20768738 C-118.92482681 286.43386105 -121.13549909 285.13312827 -123.6875 283.8125 C-125.75808466 282.06663032 -127.58609894 280.17510985 -129.5 278.25 C-130.39332031 277.36183594 -131.28664062 276.47367187 -132.20703125 275.55859375 C-134.6875 272.8125 -134.6875 272.8125 -136.06616211 269.69116211 C-139.12690166 266.32996437 -139.82983721 266.34065888 -144.19042969 266.03955078 C-146.49640479 265.99856176 -148.80310384 265.99007497 -151.109375 266.0078125 C-152.32449768 265.99410614 -153.53962036 265.98039978 -154.79156494 265.96627808 C-158.67391647 265.92887759 -162.5549934 265.93270026 -166.4375 265.9375 C-169.0690305 265.91938052 -171.70054401 265.89858022 -174.33203125 265.875 C-180.78397946 265.82305437 -187.23536198 265.80495286 -193.6875 265.8125 C-193.81898438 266.57691406 -193.95046875 267.34132813 -194.0859375 268.12890625 C-195.53949094 274.61326478 -200.40754103 279.13712815 -205.6875 282.8125 C-212.61011515 286.80459124 -220.78089111 286.98506087 -228.43359375 285.15625 C-236.06608447 282.46106302 -241.31583095 277.89053293 -245.125 270.75 C-248.09695601 263.22361789 -248.0747787 254.20726168 -244.9375 246.75 C-241.09834688 239.5382575 -236.25491346 234.84886925 -228.51953125 232.01953125 C-219.72366887 229.69991444 -211.90024174 230.97422029 -203.953125 235.28515625 C-199.26758636 238.44385557 -195.90737857 242.62250613 -193.6875 247.8125 C-193.6875 248.8025 -193.6875 249.7925 -193.6875 250.8125 C-178.8375 250.8125 -163.9875 250.8125 -148.6875 250.8125 C-150.6675 245.8625 -152.6475 240.9125 -154.6875 235.8125 C-155.59743074 232.57908302 -156.41186243 229.51811072 -157.0625 226.25 C-157.22621094 225.50943359 -157.38992187 224.76886719 -157.55859375 224.00585938 C-158.46835358 219.70552407 -158.6875 216.35373374 -158.6875 211.8125 C-187.3975 211.8125 -216.1075 211.8125 -245.6875 211.8125 C-246.3475 213.7925 -247.0075 215.7725 -247.6875 217.8125 C-251.0124234 224.21748809 -256.00610782 227.88430363 -262.59375 230.59765625 C-270.13083321 232.92982749 -277.8992619 231.9228739 -285 228.6875 C-290.94238134 225.40504174 -295.78499763 220.55607561 -298.2109375 214.08203125 C-300.01813504 205.47562329 -299.82935998 196.63153619 -295.30078125 188.96484375 C-290.79052555 182.94752925 -285.19850074 178.24995014 -277.6875 176.8125 C-268.10064992 175.8926806 -260.94129544 176.92428498 -253.4375 183.0625 C-249.91279144 186.33742607 -247.70195929 189.4478382 -245.6875 193.8125 C-245.6875 194.8025 -245.6875 195.7925 -245.6875 196.8125 C-216.9775 196.8125 -188.2675 196.8125 -158.6875 196.8125 C-158.6875 183.6125 -158.6875 170.4125 -158.6875 156.8125 C-170.2375 156.8125 -181.7875 156.8125 -193.6875 156.8125 C-194.0175 158.4625 -194.3475 160.1125 -194.6875 161.8125 C-198.43203055 168.58145907 -203.95066022 173.93534382 -211.39453125 176.33984375 C-219.97790218 178.10915871 -228.09142728 177.26219251 -235.6875 172.8125 C-241.22476954 168.71003159 -245.01625496 163.52714725 -246.6875 156.8125 C-247.82828745 146.66301994 -246.34067919 139.55321015 -240.9375 131.0625 C-235.08803653 125.21303653 -228.36872904 121.95773443 -220.08984375 121.74609375 C-212.38345899 122.10377406 -205.54575488 124.24181692 -199.80078125 129.55859375 C-196.50458484 133.26980763 -193.6875 136.69859244 -193.6875 141.8125 C-182.1375 141.8125 -170.5875 141.8125 -158.6875 141.8125 C-158.72230469 138.88761719 -158.75710937 135.96273437 -158.79296875 132.94921875 C-158.81635823 130.11955746 -158.83457828 127.28990689 -158.85229492 124.46020508 C-158.86739082 122.49205717 -158.88786948 120.52394294 -158.91381836 118.5559082 C-158.95016649 115.72859388 -158.96721814 112.9017239 -158.98046875 110.07421875 C-159.00369453 108.75220711 -159.00369453 108.75220711 -159.02738953 107.40348816 C-159.02772942 106.1725518 -159.02772942 106.1725518 -159.02807617 104.91674805 C-159.03806892 103.83419991 -159.03806892 103.83419991 -159.04826355 102.7297821 C-158.56824048 100.1786939 -157.78476878 99.31884003 -155.6875 97.8125 C-153.6027832 97.47192383 -153.6027832 97.47192383 -151.23828125 97.51953125 C-150.39072266 97.52919922 -149.54316406 97.53886719 -148.66992188 97.54882812 C-147.78884766 97.57396484 -146.90777344 97.59910156 -146 97.625 C-145.10732422 97.63853516 -144.21464844 97.65207031 -143.29492188 97.66601562 C-141.09183834 97.70135921 -138.88997418 97.75069507 -136.6875 97.8125 C-136.70844727 96.62398438 -136.72939453 95.43546875 -136.75097656 94.2109375 C-136.82439169 89.72310856 -136.86966161 85.23533041 -136.90722656 80.74707031 C-136.92711428 78.8192446 -136.95423439 76.89147733 -136.98925781 74.96386719 C-137.26629011 59.30339424 -136.03661975 45.2133551 -128.9375 30.9375 C-128.59678467 30.23262451 -128.25606934 29.52774902 -127.9050293 28.80151367 C-124.90611835 22.81675144 -121.16088989 17.78590952 -116.6875 12.8125 C-115.52541016 11.36037109 -115.52541016 11.36037109 -114.33984375 9.87890625 C-87.3674448 -22.51148453 -32.30403578 -25.62044217 0 0 Z M-102.80859375 19.83203125 C-115.04625169 32.68992136 -121.89251806 49.38740607 -121.78515625 67.05078125 C-121.7837413 67.93154831 -121.78232635 68.81231537 -121.78086853 69.71977234 C-121.77528937 72.52155003 -121.76274071 75.32324662 -121.75 78.125 C-121.74498231 80.02929572 -121.74041987 81.93359269 -121.73632812 83.83789062 C-121.72617941 88.49614983 -121.70659995 93.15423455 -121.6875 97.8125 C-114.4275 97.8125 -107.1675 97.8125 -99.6875 97.8125 C-99.65011719 95.20859375 -99.61273438 92.6046875 -99.57421875 89.921875 C-99.52781888 87.35994748 -99.47665297 84.79815551 -99.42504883 82.23632812 C-99.3920867 80.47534639 -99.36396852 78.71426627 -99.34106445 76.953125 C-99.11948779 60.35844694 -97.72174637 46.36100745 -86.0625 33.5625 C-75.28820818 23.40505695 -61.9622443 21.19070923 -47.72265625 21.56640625 C-34.51462027 22.19745337 -23.61686538 26.83667389 -14.5078125 36.48046875 C-6.9495705 46.1634526 -4.45024524 56.99215544 -4.2734375 69.00390625 C-4.25407135 69.83462143 -4.2347052 70.66533661 -4.2147522 71.52122498 C-4.15562385 74.13905002 -4.10884196 76.75692066 -4.0625 79.375 C-4.02425857 81.16473127 -3.9852034 82.95444536 -3.9453125 84.74414062 C-3.84846715 89.10016397 -3.76837234 93.45603464 -3.6875 97.8125 C3.5725 97.8125 10.8325 97.8125 18.3125 97.8125 C18.4052423 92.38965159 18.48459358 86.96964599 18.53222656 81.54663086 C18.55211918 79.70896999 18.57924332 77.87137049 18.61425781 76.03393555 C19.04191768 52.98432661 13.63323001 34.82706382 -2.703125 17.69921875 C-31.46833297 -9.73426663 -74.68475947 -6.94517377 -102.80859375 19.83203125 Z M-77.6875 45.8125 C-83.69193251 53.13497867 -85.01088397 61.25163789 -84.8828125 70.46875 C-84.88079834 71.16838867 -84.87878418 71.86802734 -84.87670898 72.58886719 C-84.86636805 75.16347965 -84.83844709 77.73799752 -84.8125 80.3125 C-84.77125 86.0875 -84.73 91.8625 -84.6875 97.8125 C-62.9075 97.8125 -41.1275 97.8125 -18.6875 97.8125 C-18.625625 92.07875 -18.56375 86.345 -18.5 80.4375 C-18.47268799 78.64908691 -18.44537598 76.86067383 -18.41723633 75.01806641 C-18.31200713 63.39972625 -18.97144418 54.01977436 -26.734375 44.7890625 C-33.81409374 37.62438713 -41.74872167 35.75490333 -51.5625 35.5 C-62.24542581 35.70522163 -69.98489768 38.20123289 -77.6875 45.8125 Z M-227.6875 139.8125 C-230.61785973 143.04340944 -231.92992992 145.56720242 -232.125 149.875 C-231.55884089 154.97043195 -230.42742281 157.37084967 -226.5 160.625 C-222.77215159 162.19898044 -219.67719543 162.40326626 -215.6875 161.8125 C-211.51789478 160.05200002 -209.41621572 157.99781174 -207.6875 153.8125 C-206.8578133 148.87996699 -207.14740544 145.74078752 -209.6875 141.375 C-215.63366386 136.29598504 -220.83307085 135.59438976 -227.6875 139.8125 Z M105.875 141.9375 C103.68894742 145.95983674 103.64402533 149.32882845 104.3125 153.8125 C106.04121572 157.99781174 108.14289478 160.05200002 112.3125 161.8125 C116.30219543 162.40326626 119.39715159 162.19898044 123.125 160.625 C127.05242281 157.37084967 128.18384089 154.97043195 128.75 149.875 C128.55492992 145.56720242 127.24285973 143.04340944 124.3125 139.8125 C117.33123457 135.69215403 111.87413075 136.70748858 105.875 141.9375 Z M-227.6875 248.8125 C-230.61785973 252.04340944 -231.92992992 254.56720242 -232.125 258.875 C-231.55884089 263.97043195 -230.42742281 266.37084967 -226.5 269.625 C-222.77215159 271.19898044 -219.67719543 271.40326626 -215.6875 270.8125 C-211.51789478 269.05200002 -209.41621572 266.99781174 -207.6875 262.8125 C-206.8578133 257.87996699 -207.14740544 254.74078752 -209.6875 250.375 C-215.63366386 245.29598504 -220.83307085 244.59438976 -227.6875 248.8125 Z M105.875 250.9375 C103.68894742 254.95983674 103.64402533 258.32882845 104.3125 262.8125 C106.04121572 266.99781174 108.14289478 269.05200002 112.3125 270.8125 C116.30219543 271.40326626 119.39715159 271.19898044 123.125 269.625 C127.05242281 266.37084967 128.18384089 263.97043195 128.75 258.875 C128.55492992 254.56720242 127.24285973 252.04340944 124.3125 248.8125 C117.33123457 244.69215403 111.87413075 245.70748858 105.875 250.9375 Z M-118.0625 393.75 C-118.94438519 396.66022112 -119.05155994 398.77866714 -118.6875 401.8125 C-116.62254958 405.57365969 -114.60024408 408.90900288 -110.6875 410.8125 C-106.86695656 411.46995489 -103.33280686 411.68906941 -99.83984375 409.828125 C-95.81981419 406.62790491 -93.96556269 403.94431393 -93.3125 398.9375 C-93.88191607 394.19236605 -96.24633998 391.41378892 -99.375 387.9375 C-107.12456095 384.16744332 -113.33999756 387.09556474 -118.0625 393.75 Z M-9.0625 393.75 C-9.94438519 396.66022112 -10.05155994 398.77866714 -9.6875 401.8125 C-7.62254958 405.57365969 -5.60024408 408.90900288 -1.6875 410.8125 C2.13304344 411.46995489 5.66719314 411.68906941 9.16015625 409.828125 C13.18018581 406.62790491 15.03443731 403.94431393 15.6875 398.9375 C15.11808393 394.19236605 12.75366002 391.41378892 9.625 387.9375 C1.87543905 384.16744332 -4.33999756 387.09556474 -9.0625 393.75 Z " fill="#1E4570" transform="translate(307.6875,25.1875)"/>
<path d="M0 0 C61.38 0 122.76 0 186 0 C186.0825 16.479375 186.165 32.95875 186.25 49.9375 C186.28641602 55.10784912 186.32283203 60.27819824 186.36035156 65.60522461 C186.37841797 72.00305176 186.37841797 72.00305176 186.3817749 75.01441956 C186.38784829 77.08204103 186.40177027 79.1496499 186.42230225 81.21717834 C186.70719893 111.46308836 178.76072859 136.93668416 157.375 159.0625 C140.10184588 176.30276331 117.65974913 184.18883792 93.5625 184.375 C67.63444288 184.17493189 46.85004816 176.03048085 28 158 C26.96746094 157.07960938 26.96746094 157.07960938 25.9140625 156.140625 C10.95164218 142.3018647 1.25642387 119.62263906 -0.18098831 99.46145248 C-0.24330395 96.80604288 -0.24783561 94.15752103 -0.22705078 91.50146484 C-0.22729185 90.48921656 -0.22753292 89.47696827 -0.2277813 88.43404579 C-0.22630155 85.19291682 -0.21113071 81.95202473 -0.1953125 78.7109375 C-0.19236791 76.69572053 -0.19033003 74.68050202 -0.18920898 72.6652832 C-0.17876986 65.23516531 -0.15084734 57.80508027 -0.125 50.375 C-0.08375 33.75125 -0.0425 17.1275 0 0 Z " fill="#A2D1FC" transform="translate(163,137)"/>
<path d="M0 0 C6.02182409 2.90337947 9.99868755 7.6986059 12.4609375 13.921875 C14.38929488 21.35583244 13.32598443 29.14767063 10 36 C7.06228435 40.91771448 3.47218334 43.33052034 -2 45 C-6.96557094 45.79331607 -10.9870568 45.25659196 -15.328125 42.46875 C-20.95047664 37.52948781 -23.48971027 31.74569446 -24.2734375 24.45703125 C-24.59032954 16.20565 -22.4598287 10.61003771 -17.53125 4.04296875 C-12.59752114 -1.12051709 -6.77047442 -1.10173228 0 0 Z " fill="#214773" transform="translate(229,259)"/>
<path d="M0 0 C6.01378437 2.95222142 9.9923518 7.68259246 12.4609375 13.921875 C14.38929488 21.35583244 13.32598443 29.14767063 10 36 C7.06228435 40.91771448 3.47218334 43.33052034 -2 45 C-6.96557094 45.79331607 -10.9870568 45.25659196 -15.328125 42.46875 C-20.95047664 37.52948781 -23.48971027 31.74569446 -24.2734375 24.45703125 C-24.55117115 17.22527436 -23.14637492 11.97724177 -19 6 C-13.28773525 -0.0753916 -8.07609847 -0.82245982 0 0 Z " fill="#214773" transform="translate(229,145)"/>
<path d="M0 0 C6.02182409 2.90337947 9.99868755 7.6986059 12.4609375 13.921875 C14.38929488 21.35583244 13.32598443 29.14767063 10 36 C7.06237112 40.91756923 3.46197919 43.30490301 -2 45 C-7.46395364 45.5854236 -11.24482906 44.76664491 -16 42 C-21.81153471 36.08183163 -23.98720902 29.9081968 -24.4375 21.6875 C-24.27016276 14.0736554 -21.17244341 7.85372754 -15.9375 2.375 C-11.20225593 -1.28027612 -5.67603204 -0.92363804 0 0 Z " fill="#214773" transform="translate(294,259)"/>
<path d="M0 0 C6.02182409 2.90337947 9.99868755 7.6986059 12.4609375 13.921875 C14.38929488 21.35583244 13.32598443 29.14767063 10 36 C7.06237112 40.91756923 3.46197919 43.30490301 -2 45 C-7.46395364 45.5854236 -11.24482906 44.76664491 -16 42 C-21.81153471 36.08183163 -23.98720902 29.9081968 -24.4375 21.6875 C-24.27016276 14.0736554 -21.17244341 7.85372754 -15.9375 2.375 C-11.20225593 -1.28027612 -5.67603204 -0.92363804 0 0 Z " fill="#214773" transform="translate(294,145)"/>
<path d="M0 0 C4.77809748 3.09958478 7.63902174 7.49833815 9.39453125 12.90625 C10.79407321 20.29635474 11.13140772 28.82808629 7.15625 35.4296875 C3.58769647 39.90075311 -0.36987561 43.66970965 -6.23828125 44.3515625 C-11.78662688 44.53363256 -14.8359596 43.87142978 -19.1875 40.11328125 C-26.01357098 32.97693432 -26.71318104 26.41681109 -26.5625 16.8203125 C-25.88651644 10.13793339 -23.11986951 5.47026138 -18.125 1.05078125 C-12.82107524 -2.28012992 -5.72576437 -2.32097949 0 0 Z " fill="#214773" transform="translate(329.1875,202.88671875)"/>
<path d="M0 0 C5.26958144 1.97251963 8.63192444 6.28978746 11.1171875 11.2109375 C13.4139077 18.46694733 13.203069 26.95619009 10.4375 34.0625 C7.69284812 39.24793159 3.57447623 43.14184126 -2 45 C-6.61060212 45.53570806 -10.05331196 45.47334402 -14.25 43.375 C-19.67210012 38.69227717 -23.62189655 34.11003356 -24.30078125 26.73046875 C-24.33178897 17.35580276 -23.84608207 10.04743743 -17 3 C-11.53365377 -0.87356604 -6.50139686 -0.8893013 0 0 Z " fill="#214773" transform="translate(197,202)"/>
<path d="M0 0 C5.73097199 2.29442829 8.44437934 6.59387937 11 12 C13.19530804 18.76272746 13.39086375 27.9874543 10.4375 34.5 C7.53022087 39.32815998 3.35560153 43.21479949 -2 45 C-6.61060212 45.53570806 -10.05331196 45.47334402 -14.25 43.375 C-19.67210012 38.69227717 -23.62189655 34.11003356 -24.30078125 26.73046875 C-24.33178897 17.35580276 -23.84608207 10.04743743 -17 3 C-11.54146231 -0.86803275 -6.49390914 -0.90432422 0 0 Z " fill="#214773" transform="translate(262,202)"/>
<path d="M0 0 C0.680625 -0.01933594 1.36125 -0.03867188 2.0625 -0.05859375 C4 0.4375 4 0.4375 5.59399414 1.96289062 C7.55616055 5.41635802 7.44871118 8.65933041 7.43359375 12.52734375 C7.4388356 13.30888321 7.44407745 14.09042267 7.44947815 14.89564514 C7.45589009 16.54557103 7.45457204 18.19554267 7.44604492 19.84545898 C7.43753952 22.36330004 7.4662967 24.87886762 7.49804688 27.39648438 C7.49965923 29.00260349 7.49908069 30.6087266 7.49609375 32.21484375 C7.51294472 33.33849586 7.51294472 33.33849586 7.53013611 34.48484802 C7.48161079 38.14435488 7.09847609 40.27838111 5.15649414 43.41625977 C3 45.4375 3 45.4375 0 46 C-3.77150412 45.29284298 -4.72968153 44.51901158 -7 41.4375 C-7.38552064 38.4446967 -7.53800458 35.82870032 -7.49609375 32.83984375 C-7.49754898 32.00916885 -7.49900421 31.17849396 -7.50050354 30.32264709 C-7.49884638 28.57012416 -7.48730548 26.81758639 -7.46655273 25.06518555 C-7.43756178 22.38072058 -7.44595375 19.69822651 -7.45898438 17.01367188 C-7.4527478 15.30988623 -7.44435749 13.60610681 -7.43359375 11.90234375 C-7.43652939 11.09917221 -7.43946503 10.29600067 -7.44248962 9.4684906 C-7.34859238 3.93384615 -7.34859238 3.93384615 -5.59399414 1.43554688 C-3.61428691 0.19599363 -2.32967568 0.00441226 0 0 Z " fill="#204672" transform="translate(321,144.5625)"/>
<path d="M0 0 C1.0209375 0.02900391 1.0209375 0.02900391 2.0625 0.05859375 C3.0834375 0.06052734 3.0834375 0.06052734 4.125 0.0625 C6.79500598 0.6600215 7.47251744 1.23218387 9.0625 3.49609375 C9.37308538 6.39044921 9.50667783 9.06520357 9.49609375 11.9609375 C9.5013356 12.79065567 9.50657745 13.62037384 9.51197815 14.47523499 C9.51839946 16.22949098 9.5170599 17.98379003 9.50854492 19.73803711 C9.50004138 22.42054075 9.52878191 25.1009103 9.56054688 27.78320312 C9.56215917 29.48828061 9.56158081 31.19336187 9.55859375 32.8984375 C9.57544472 34.10015846 9.57544472 34.10015846 9.59263611 35.32615662 C9.54770361 38.92232434 9.38174592 41.0627801 7.21899414 43.99829102 C5.0625 45.49609375 5.0625 45.49609375 2.0625 46.05859375 C-0.9375 45.49609375 -0.9375 45.49609375 -3.09399414 43.47485352 C-5.4277551 39.70393345 -5.49807663 36.5732691 -5.43359375 32.2734375 C-5.43504898 31.49094131 -5.43650421 30.70844513 -5.43800354 29.90223694 C-5.43634894 28.25404116 -5.42483682 26.60582923 -5.40405273 24.95776367 C-5.37505039 22.43797135 -5.38346106 19.9202788 -5.39648438 17.40039062 C-5.3902477 15.79556272 -5.38185731 14.19074143 -5.37109375 12.5859375 C-5.37402939 11.83481186 -5.37696503 11.08368622 -5.37998962 10.30979919 C-5.32207971 7.09427002 -5.13527568 4.84418444 -3.53149414 2.02148438 C-1.9375 0.49609375 -1.9375 0.49609375 0 0 Z " fill="#204672" transform="translate(188.9375,144.50390625)"/>
<path d="M0 0 C0.680625 -0.0103125 1.36125 -0.020625 2.0625 -0.03125 C4 0.5 4 0.5 5.59399414 2.01171875 C7.58662638 5.53818303 7.44851696 8.89828933 7.43359375 12.84375 C7.4388356 13.64985718 7.44407745 14.45596436 7.44947815 15.28649902 C7.45589028 16.98769989 7.45457179 18.68894514 7.44604492 20.39013672 C7.43752828 22.99136274 7.46631525 25.59039674 7.49804688 28.19140625 C7.49965889 29.84635351 7.49908135 31.50130465 7.49609375 33.15625 C7.51294472 34.32045471 7.51294472 34.32045471 7.53013611 35.50817871 C7.4844567 39.05091998 7.29234934 41.10509028 5.15649414 43.99023438 C2.20783937 46.05459315 0.5249778 46.0874963 -3 45.5 C-5.15649414 43.99023438 -5.15649414 43.99023438 -7 41.5 C-7.38574137 38.58826274 -7.53817664 36.06368515 -7.49609375 33.15625 C-7.49754898 32.35014282 -7.49900421 31.54403564 -7.50050354 30.71350098 C-7.49884643 29.01225158 -7.48730599 27.3109869 -7.46655273 25.60986328 C-7.43759786 23.00879104 -7.44594657 20.40975785 -7.45898438 17.80859375 C-7.45274654 16.15363595 -7.44435525 14.49868457 -7.43359375 12.84375 C-7.43799721 11.67954529 -7.43799721 11.67954529 -7.44248962 10.49182129 C-7.38545131 7.22014499 -7.21971953 4.88884901 -5.59399414 2.01171875 C-3.63041272 0.14948929 -2.67916836 -0.04059346 0 0 Z " fill="#1F4571" transform="translate(256,258.5)"/>
<path d="M0 0 C2.18725586 1.52172852 2.18725586 1.52172852 4 4 C4.410128 6.82885085 4.58507897 9.26203492 4.56640625 12.08984375 C4.57570412 13.26215294 4.57570412 13.26215294 4.58518982 14.45814514 C4.59228103 16.10807044 4.58912605 17.7580674 4.57641602 19.40795898 C4.56256154 21.9263144 4.59660976 24.44094345 4.63476562 26.95898438 C4.63571702 28.56510507 4.63385691 30.1712304 4.62890625 31.77734375 C4.64216446 32.52644516 4.65542267 33.27554657 4.66908264 34.04734802 C4.59873473 38.01828838 4.13793566 39.82448078 1.65600586 42.98266602 C-1 45 -1 45 -4.125 45.5 C-7.32658712 44.94320224 -8.04290541 44.49017732 -10 42 C-10.29841479 39.02260864 -10.42027068 36.25881789 -10.3984375 33.28125 C-10.40274277 31.99982117 -10.40274277 31.99982117 -10.40713501 30.69250488 C-10.40917581 28.88695615 -10.40364483 27.08138531 -10.39111328 25.27587891 C-10.37505944 22.51023988 -10.39096099 19.74606225 -10.41015625 16.98046875 C-10.40817382 15.22655927 -10.40433015 13.4726507 -10.3984375 11.71875 C-10.40451019 10.89056763 -10.41058289 10.06238525 -10.4168396 9.20910645 C-10.3462355 3.45340574 -10.3462355 3.45340574 -8.69058228 1.28527832 C-5.84826868 -0.87561269 -3.42842173 -0.42103425 0 0 Z " fill="#234975" transform="translate(227,202)"/>
<path d="M0 0 C0.680625 -0.0103125 1.36125 -0.020625 2.0625 -0.03125 C4 0.5 4 0.5 5.59399414 2.01171875 C7.58662638 5.53818303 7.44851696 8.89828933 7.43359375 12.84375 C7.4388356 13.64985718 7.44407745 14.45596436 7.44947815 15.28649902 C7.45589028 16.98769989 7.45457179 18.68894514 7.44604492 20.39013672 C7.43752828 22.99136274 7.46631525 25.59039674 7.49804688 28.19140625 C7.49965889 29.84635351 7.49908135 31.50130465 7.49609375 33.15625 C7.51294472 34.32045471 7.51294472 34.32045471 7.53013611 35.50817871 C7.4844567 39.05091998 7.29234934 41.10509028 5.15649414 43.99023438 C2.20783937 46.05459315 0.5249778 46.0874963 -3 45.5 C-5.15649414 43.99023438 -5.15649414 43.99023438 -7 41.5 C-7.38574137 38.58826274 -7.53817664 36.06368515 -7.49609375 33.15625 C-7.49754898 32.35014282 -7.49900421 31.54403564 -7.50050354 30.71350098 C-7.49884643 29.01225158 -7.48730599 27.3109869 -7.46655273 25.60986328 C-7.43759786 23.00879104 -7.44594657 20.40975785 -7.45898438 17.80859375 C-7.45274654 16.15363595 -7.44435525 14.49868457 -7.43359375 12.84375 C-7.43799721 11.67954529 -7.43799721 11.67954529 -7.44248962 10.49182129 C-7.38545131 7.22014499 -7.21971953 4.88884901 -5.59399414 2.01171875 C-3.63041272 0.14948929 -2.67916836 -0.04059346 0 0 Z " fill="#1F4571" transform="translate(256,144.5)"/>
<path d="M0 0 C1.6934967 1.28137207 1.6934967 1.28137207 3 3 C3.31056874 5.97695617 3.4441512 8.74035495 3.43359375 11.71875 C3.4388356 12.57303589 3.44407745 13.42732178 3.44947815 14.30749512 C3.45589938 16.11302605 3.45456002 17.91859882 3.44604492 19.72412109 C3.43753074 22.49001317 3.46629979 25.25384309 3.49804688 28.01953125 C3.49965885 29.77343688 3.49908143 31.52734617 3.49609375 33.28125 C3.51294472 34.52352356 3.51294472 34.52352356 3.53013611 35.79089355 C3.46073952 41.49370627 3.46073952 41.49370627 1.16040039 44.02148438 C-1.76325972 45.34570516 -3.82766759 45.40497861 -7 45 C-8.65933228 43.71862793 -8.65933228 43.71862793 -10 42 C-10.29841479 39.02260864 -10.42027068 36.25881789 -10.3984375 33.28125 C-10.40274277 31.99982117 -10.40274277 31.99982117 -10.40713501 30.69250488 C-10.40917581 28.88695615 -10.40364483 27.08138531 -10.39111328 25.27587891 C-10.37505944 22.51023988 -10.39096099 19.74606225 -10.41015625 16.98046875 C-10.40817382 15.22655927 -10.40433015 13.4726507 -10.3984375 11.71875 C-10.40451019 10.89056763 -10.41058289 10.06238525 -10.4168396 9.20910645 C-10.34626533 3.45583763 -10.34626533 3.45583763 -8.69448853 1.28137207 C-5.88620034 -0.8422552 -3.38239812 -0.3623998 0 0 Z " fill="#1F4571" transform="translate(292,202)"/>
<path d="M0 0 C3.98261611 2.06692735 6.45113431 4.09882503 8.1015625 8.2734375 C8.6716872 13.49958055 7.92274105 16.84015692 5.1015625 21.2734375 C1.86110106 24.21010568 -0.83358685 25.17297989 -5.2109375 25.5859375 C-9.65730032 25.20912709 -11.53791872 24.17570372 -14.8984375 21.2734375 C-17.8088095 16.9078795 -18.5490624 13.47843671 -17.8984375 8.2734375 C-14.12409689 1.00433706 -8.32218907 -3.18503532 0 0 Z " fill="#9FCFFA" transform="translate(260.8984375,463.7265625)"/>
<path d="M0 0 C3.93011189 1.95342839 6.38377904 4.94817165 8 9 C8.23974502 13.46724889 7.53895094 17.09533235 5.25 20.9375 C1.23213127 24.62054633 -2.52482931 25.52136525 -8.00390625 25.38671875 C-12.27617284 24.55901935 -14.80639157 21.57339293 -17.375 18.1875 C-18.69757596 13.55848413 -18.67987371 9.52971585 -16.75 5.1875 C-12.05696273 -0.67879659 -7.20527551 -1.12615015 0 0 Z " fill="#A1D1FC" transform="translate(41,217)"/>
<path d="M0 0 C3.42949055 2.01698455 6.20893285 4.4178657 8 8 C8.50890436 14.10685229 8.0775461 17.12959772 4 22 C1.34384464 24.84588075 0.09697891 24.99061494 -3.875 25.375 C-8.70396677 25.17716523 -12.20016164 23.61364819 -15.8125 20.375 C-17.65785365 16.6842927 -18.24307203 13.1179261 -18 9 C-14.01373113 1.02746225 -8.6752178 -1.68980469 0 0 Z " fill="#A1D1FC" transform="translate(481,217)"/>
<path d="M0 0 C1.875 0.3125 1.875 0.3125 4 1 C6.49455917 4.74183875 6.37606522 6.56243036 6 11 C4.5 14.4375 4.5 14.4375 3 17 C1.125 16.8125 1.125 16.8125 -1 16 C-3.29254531 12.10267297 -3.40379194 8.44171138 -3 4 C-1.5 1.5625 -1.5 1.5625 0 0 Z " fill="#9DCCF7" transform="translate(287,273)"/>
<path d="M0 0 C1.875 0.3125 1.875 0.3125 4 1 C6.49455917 4.74183875 6.37606522 6.56243036 6 11 C4.5 14.4375 4.5 14.4375 3 17 C1.125 16.8125 1.125 16.8125 -1 16 C-3.29254531 12.10267297 -3.40379194 8.44171138 -3 4 C-1.5 1.5625 -1.5 1.5625 0 0 Z " fill="#9DCCF7" transform="translate(222,273)"/>
<path d="M0 0 C1.875 0.3125 1.875 0.3125 4 1 C6.49455917 4.74183875 6.37606522 6.56243036 6 11 C4.5 14.4375 4.5 14.4375 3 17 C1.125 16.8125 1.125 16.8125 -1 16 C-3.29254531 12.10267297 -3.40379194 8.44171138 -3 4 C-1.5 1.5625 -1.5 1.5625 0 0 Z " fill="#9DCCF7" transform="translate(287,159)"/>
<path d="M0 0 C1.875 0.3125 1.875 0.3125 4 1 C6.49455917 4.74183875 6.37606522 6.56243036 6 11 C4.5 14.4375 4.5 14.4375 3 17 C1.125 16.8125 1.125 16.8125 -1 16 C-3.29254531 12.10267297 -3.40379194 8.44171138 -3 4 C-1.5 1.5625 -1.5 1.5625 0 0 Z " fill="#9DCCF7" transform="translate(222,159)"/>
<path d="M0 0 C3.875 1.75 3.875 1.75 5 4 C5.203125 6.2421875 5.203125 6.2421875 5.25 8.875 C5.28867187 10.17050781 5.28867187 10.17050781 5.328125 11.4921875 C4.94108924 14.45024649 3.95124005 15.79201784 2 18 C-1.875 16.25 -1.875 16.25 -3 14 C-3.203125 11.7578125 -3.203125 11.7578125 -3.25 9.125 C-3.27578125 8.26132813 -3.3015625 7.39765625 -3.328125 6.5078125 C-2.94108924 3.54975351 -1.95124005 2.20798216 0 0 Z " fill="#9FCEF9" transform="translate(320,215)"/>
<path d="M0 0 C3.875 1.75 3.875 1.75 5 4 C5.203125 6.2421875 5.203125 6.2421875 5.25 8.875 C5.28867187 10.17050781 5.28867187 10.17050781 5.328125 11.4921875 C4.94108924 14.45024649 3.95124005 15.79201784 2 18 C-1.875 16.25 -1.875 16.25 -3 14 C-3.203125 11.7578125 -3.203125 11.7578125 -3.25 9.125 C-3.27578125 8.26132813 -3.3015625 7.39765625 -3.328125 6.5078125 C-2.94108924 3.54975351 -1.95124005 2.20798216 0 0 Z " fill="#9FCEF9" transform="translate(255,215)"/>
<path d="M0 0 C3.875 1.75 3.875 1.75 5 4 C5.203125 6.2421875 5.203125 6.2421875 5.25 8.875 C5.28867188 10.17050781 5.28867188 10.17050781 5.328125 11.4921875 C4.94108924 14.45024649 3.95124005 15.79201784 2 18 C-1.875 16.25 -1.875 16.25 -3 14 C-3.203125 11.7578125 -3.203125 11.7578125 -3.25 9.125 C-3.27578125 8.26132813 -3.3015625 7.39765625 -3.328125 6.5078125 C-2.94108924 3.54975351 -1.95124005 2.20798216 0 0 Z " fill="#9FCEF9" transform="translate(190,215)"/>
</svg>
